<svg width="34" height="24" viewBox="0 0 34 24" fill="none" xmlns="http://www.w3.org/2000/svg">
<rect x="0.5" y="0.5" width="33" height="23" rx="3.5" fill="white" stroke="#D9D9D9"/>
<path d="M26.7114 14.1296H26.729L28.146 10.571H29.1431L26.0796 17.7058H25.1343L26.2729 15.2107L24.2632 10.571H25.2593L26.7114 14.1296ZM21.9175 10.4099C22.5949 10.41 23.1301 10.5949 23.5229 10.9587C23.9157 11.3227 24.1089 11.8313 24.1089 12.4724V15.5281H23.2329V14.8406H23.1929C22.8114 15.4066 22.3101 15.6901 21.6782 15.6902C21.1431 15.6902 20.6873 15.5282 20.3286 15.2048C19.9756 14.9044 19.7762 14.4589 19.7876 13.991C19.7877 13.477 19.9814 13.0725 20.3628 12.7663C20.7442 12.4603 21.2566 12.3103 21.894 12.3103C22.4406 12.3103 22.8848 12.4147 23.2378 12.6111V12.3972C23.2378 12.0796 23.1017 11.779 22.8628 11.571C22.618 11.3516 22.3044 11.2303 21.98 11.2302C21.4676 11.2302 21.0632 11.4495 20.7671 11.8884L19.9585 11.3747C20.3912 10.7335 21.0463 10.4099 21.9175 10.4099ZM17.5727 8.28393C18.1591 8.27244 18.7284 8.49794 19.144 8.91381C19.9751 9.69941 20.0264 11.0217 19.2466 11.8708L19.144 11.9753C18.717 12.3854 18.1932 12.5934 17.5727 12.5935H16.0581V15.5281H15.1411V8.28393H17.5727ZM22.0366 13.0613C21.6666 13.0613 21.3535 13.1537 21.103 13.3328C20.8582 13.5118 20.7329 13.7371 20.7329 14.0085C20.7329 14.2511 20.8468 14.4763 21.0347 14.615C21.2397 14.7767 21.4903 14.8639 21.7466 14.8581C22.1337 14.8581 22.5035 14.7017 22.7768 14.4246C23.0787 14.1357 23.2329 13.7949 23.2329 13.4021C22.9481 13.171 22.5491 13.0555 22.0366 13.0613ZM16.0581 11.7038H17.5952C17.9369 11.7154 18.268 11.5763 18.5014 11.3279C18.9795 10.8253 18.9675 10.0171 18.4722 9.53197C18.2387 9.30091 17.9255 9.17357 17.5952 9.17357H16.0581V11.7038Z" fill="#3C4043"/>
<path d="M12.8929 11.9579C12.8929 11.6748 12.8701 11.3918 12.8246 11.1145H8.95828V12.7147H11.1733C11.0822 13.2288 10.7861 13.691 10.3533 13.9798V15.0196H11.6744C12.4488 14.2975 12.8929 13.2288 12.8929 11.9579Z" fill="#4285F4"/>
<path d="M8.95846 16.0248C10.0631 16.0248 10.9969 15.6551 11.6745 15.0197L10.3535 13.9798C9.9834 14.234 9.51079 14.3784 8.95846 14.3784C7.88797 14.3784 6.98261 13.6448 6.65805 12.6627H5.29716V13.7372C5.99184 15.141 7.40967 16.0248 8.95846 16.0248Z" fill="#34A853"/>
<path d="M6.6582 12.6627C6.48735 12.1485 6.48735 11.5882 6.6582 11.0683V9.99954H5.2971C4.71052 11.1722 4.71052 12.5587 5.2971 13.7314L6.6582 12.6627Z" fill="#FBBC04"/>
<path d="M8.95846 9.35253C9.54495 9.34098 10.1087 9.56628 10.53 9.97643L11.703 8.7864C10.9571 8.08162 9.9777 7.69457 8.95846 7.70612C7.40967 7.70612 5.99184 8.59576 5.29716 9.99954L6.65805 11.074C6.98261 10.0862 7.88797 9.35253 8.95846 9.35253Z" fill="#EA4335"/>
</svg>
